<?xml version="1.0" encoding="utf-8"?>
<!-- Generator: Adobe Illustrator 18.0.0, SVG Export Plug-In . SVG Version: 6.00 Build 0)  -->
<!DOCTYPE svg PUBLIC "-//W3C//DTD SVG 1.1//EN" "http://www.w3.org/Graphics/SVG/1.1/DTD/svg11.dtd">
<svg version="1.1" id="Layer_1" xmlns="http://www.w3.org/2000/svg" xmlns:xlink="http://www.w3.org/1999/xlink" x="0px" y="0px"
	 viewBox="0 0 512 512" enable-background="new 0 0 512 512" xml:space="preserve">
<path id="instagram-6-icon" fill="#FFFFFF" d="M414.5,224.3h-35.9c2.6,10.1,4.2,20.7,4.2,31.7c0,70-56.8,126.8-126.8,126.8
	S129.2,326,129.2,256c0-11,1.5-21.6,4.2-31.7H97.5v174.3c0,8.7,7.1,15.8,15.9,15.8h285.2c8.8,0,15.9-7.1,15.9-15.8L414.5,224.3
	L414.5,224.3z M414.5,113.4c0-8.8-7.1-15.8-15.9-15.8h-47.5c-8.8,0-15.8,7.1-15.8,15.8v47.5c0,8.7,7.1,15.8,15.8,15.8h47.5
	c8.8,0,15.9-7.1,15.9-15.8V113.4z M256,176.8c-43.8,0-79.2,35.5-79.2,79.2c0,43.8,35.5,79.2,79.2,79.2c43.8,0,79.2-35.5,79.2-79.2
	C335.2,212.2,299.8,176.8,256,176.8 M414.5,462H97.5C71.3,462,50,440.7,50,414.4V97.5C50,71.3,71.3,50,97.5,50h316.9
	c26.2,0,47.5,21.3,47.5,47.5v316.9C462,440.7,440.7,462,414.5,462"/>
</svg>
