<?xml version="1.0" encoding="utf-8"?>
<!-- Generator: Adobe Illustrator 18.0.0, SVG Export Plug-In . SVG Version: 6.00 Build 0)  -->
<!DOCTYPE svg PUBLIC "-//W3C//DTD SVG 1.1//EN" "http://www.w3.org/Graphics/SVG/1.1/DTD/svg11.dtd">
<svg version="1.1" id="Layer_1" xmlns="http://www.w3.org/2000/svg" xmlns:xlink="http://www.w3.org/1999/xlink" x="0px" y="0px"
	 viewBox="0 0 20 20" enable-background="new 0 0 20 20" xml:space="preserve">
<path fill="#FFFFFF" d="M17,1H3C1.9,1,1,1.9,1,3v14c0,1.1,0.9,2,2,2h14c1.1,0,2-0.9,2-2V3C19,1.9,18.1,1,17,1z M10,15.5
	c3.1,0,5.5-2.5,5.5-5.5c0-0.3,0-0.7-0.1-1H17v7.2c0,0.4-0.3,0.7-0.7,0.7H3.7c-0.4,0-0.7-0.3-0.7-0.7V9h1.5c-0.1,0.3-0.1,0.6-0.1,1
	C4.4,13,6.9,15.5,10,15.5z M6.5,10c0-1.9,1.6-3.5,3.5-3.5s3.5,1.5,3.5,3.5s-1.6,3.5-3.5,3.5C8.1,13.4,6.5,11.9,6.5,10z M16.3,6h-1.6
	C14.3,6,14,5.7,14,5.3V3.7C14,3.3,14.3,3,14.7,3h1.6C16.7,3,17,3.3,17,3.7v1.6C17,5.7,16.7,6,16.3,6z"/>
</svg>
