<?xml version="1.0" encoding="utf-8"?>
<!-- Generator: Adobe Illustrator 18.0.0, SVG Export Plug-In . SVG Version: 6.00 Build 0)  -->
<!DOCTYPE svg PUBLIC "-//W3C//DTD SVG 1.1//EN" "http://www.w3.org/Graphics/SVG/1.1/DTD/svg11.dtd">
<svg version="1.1" id="Layer_1" xmlns="http://www.w3.org/2000/svg" xmlns:xlink="http://www.w3.org/1999/xlink" x="0px" y="0px"
	 viewBox="0 0 16 16" enable-background="new 0 0 16 16" xml:space="preserve">
<path fill="#FFFFFF" d="M6,6h2.8v1.4h0C9.2,6.7,10.1,6,11.5,6c2.9,0,3.5,1.8,3.5,4.2V15h-2.9v-4.3c0-1,0-2.3-1.5-2.3
	c-1.5,0-1.7,1.1-1.7,2.3V15H6C6,15,6,6,6,6z"/>
<path fill="#FFFFFF" d="M1,6h3v9H1V6z"/>
<path fill="#FFFFFF" d="M4,3.5C4,4.3,3.3,5,2.5,5S1,4.3,1,3.5S1.7,2,2.5,2S4,2.7,4,3.5z"/>
</svg>
