<?xml version="1.0" encoding="utf-8"?>
<!-- Generator: Adobe Illustrator 18.0.0, SVG Export Plug-In . SVG Version: 6.00 Build 0)  -->
<!DOCTYPE svg PUBLIC "-//W3C//DTD SVG 1.1//EN" "http://www.w3.org/Graphics/SVG/1.1/DTD/svg11.dtd">
<svg version="1.1" id="Layer_1" xmlns="http://www.w3.org/2000/svg" xmlns:xlink="http://www.w3.org/1999/xlink" x="0px" y="0px"
	 viewBox="0 0 512 512" enable-background="new 0 0 512 512" xml:space="preserve">
<path id="linkedin-icon" fill="#FFFFFF" d="M150.6,100.7c0,28-22.5,50.7-50.3,50.7s-50.3-22.7-50.3-50.7c0-28,22.5-50.7,50.3-50.7
	C128.1,50,150.6,72.7,150.6,100.7z M143.3,187.3h-85V462h85V187.3z M279.2,187.3h-81.5V462h81.5c0,0,0-101.9,0-144.2
	c0-38.6,17.8-61.6,51.8-61.6c31.3,0,46.3,22.1,46.3,61.6c0,39.5,0,144.2,0,144.2h84.6c0,0,0-100.3,0-173.9S420.2,179,362,179
	s-82.8,45.4-82.8,45.4L279.2,187.3L279.2,187.3z"/>
</svg>
