<?xml version="1.0" encoding="utf-8"?>
<!-- Generator: Adobe Illustrator 18.0.0, SVG Export Plug-In . SVG Version: 6.00 Build 0)  -->
<!DOCTYPE svg PUBLIC "-//W3C//DTD SVG 1.1//EN" "http://www.w3.org/Graphics/SVG/1.1/DTD/svg11.dtd">
<svg version="1.1" id="Layer_1" xmlns="http://www.w3.org/2000/svg" xmlns:xlink="http://www.w3.org/1999/xlink" x="0px" y="0px"
	 viewBox="0 0 512 485.9" enable-background="new 0 0 512 485.9" xml:space="preserve">
<g>
	<g id="XMLID_2_">
		<g>
			<path fill="#FFFFFF" stroke="#000000" stroke-width="10" stroke-miterlimit="10" d="M407.7,200.4c5.9-1.5,11.4-5.3,17.2-5.5
				c8.9-0.2,18.8-0.3,26.4,3.4c13.1,6.5,14.1,20.8,2.2,29.4c-9.6,6.9-21.1,11.4-32.3,15.7c-24.9,9.6-28.2,16.8-15.6,40.4
				c20.8,39,50,68.1,94.7,78.8c4.6,1.1,12,6.2,11.8,8.9c-0.5,6.1-3.5,15.1-8.1,17.2c-15,7-30.9,13-47.1,16.5
				c-10.1,2.1-13.9,5.8-16,15.3c-4.5,20-8.5,22.5-27.9,18.6c-30.9-6.2-58-0.9-84.3,18.1C275.5,495.6,236,495.5,183,457
				c-25.8-18.8-52.6-24.1-83-17.8c-20.4,4.2-23.9,1.7-28.8-19c-2-8.5-5.2-12.9-15.1-14.7c-15.3-2.9-30.7-7.9-44.8-14.6
				C5.7,388.2,1.1,379.1,0,372.5c-0.4-2.8,9.1-9,15-10.7c48.1-13.1,77.3-46,97-89.6c4.6-10.3,0.7-17.6-7.8-22.4
				c-7.6-4.2-16.2-6.6-24.4-10c-5.1-2.2-10.4-4.3-15.1-7.2c-9.6-5.9-17.6-13.2-12.1-26c4.5-10.4,19.4-16,31.1-12.2
				c6.6,2.1,13.1,4.8,19.9,6.3c8.8,1.9,13.8-0.6,13.5-11.5c-0.8-24.6-2.2-49.4-0.2-73.9c4.2-51.8,34.5-86,81.1-104.1
				C265.4-15,345.8,4.8,382.1,69.9c12.7,22.9,14.7,47.6,15.7,72.8c-1,15.8-1.8,31.6-3.1,47.4C394,200.4,399.4,202.5,407.7,200.4z"/>
		</g>
	</g>
</g>
</svg>
