<?xml version="1.0" encoding="utf-8"?>
<!-- Generator: Adobe Illustrator 18.0.0, SVG Export Plug-In . SVG Version: 6.00 Build 0)  -->
<!DOCTYPE svg PUBLIC "-//W3C//DTD SVG 1.1//EN" "http://www.w3.org/Graphics/SVG/1.1/DTD/svg11.dtd">
<svg version="1.1" id="Layer_1" xmlns="http://www.w3.org/2000/svg" xmlns:xlink="http://www.w3.org/1999/xlink" x="0px" y="0px"
	 viewBox="0 0 512 512" enable-background="new 0 0 512 512" xml:space="preserve">
<path id="tumblr-icon" fill="#FFFFFF" d="M212.8,50c-2.6,21.2-7.4,38.7-14.4,52.4c-7,13.7-16.2,25.5-27.7,35.3
	c-11.5,9.8-25.3,17.3-41.4,22.6V219h45.1v144.4c0,18.8,2,33.2,5.9,43.1c3.9,9.9,11,19.3,21.2,28.1c10.2,8.8,22.5,15.6,37,20.3
	c14.5,4.7,31.1,7.1,49.9,7.1c16.6,0,32-1.7,46.3-5c14.3-3.3,30.2-9.1,47.8-17.4v-64.8c-20.6,13.6-41.4,20.3-62.2,20.3
	c-11.7,0-22.2-2.7-31.3-8.2c-6.9-4-11.6-9.5-14.1-16.2c-2.5-6.8-3.8-22.1-3.8-46V219h97.8v-64.7h-97.8V50H212.8z"/>
</svg>
