<?xml version="1.0" encoding="utf-8"?>
<!-- Generator: Adobe Illustrator 18.0.0, SVG Export Plug-In . SVG Version: 6.00 Build 0)  -->
<!DOCTYPE svg PUBLIC "-//W3C//DTD SVG 1.1//EN" "http://www.w3.org/Graphics/SVG/1.1/DTD/svg11.dtd">
<svg version="1.1" id="Capa_1" xmlns="http://www.w3.org/2000/svg" xmlns:xlink="http://www.w3.org/1999/xlink" x="0px" y="0px"
	 viewBox="0 0 510 510" enable-background="new 0 0 510 510" xml:space="preserve">
<g>
	<g id="post-instagram">
		<path fill="#FFFFFF" d="M459,0H51C23,0,0,23,0,51v408c0,28,23,51,51,51h408c28,0,51-23,51-51V51C510,23,487,0,459,0z M255,153
			c56.1,0,102,45.9,102,102s-45.9,102-102,102s-102-45.9-102-102S198.9,153,255,153z M63.8,459c-7.7,0-12.8-5.1-12.8-12.8V229.5
			h53.6c-2.6,7.6-2.6,17.9-2.6,25.5c0,84.1,68.9,153,153,153s153-68.9,153-153c0-7.6,0-17.9-2.5-25.5H459v216.8
			c0,7.6-5.1,12.8-12.8,12.8H63.8z M459,114.8c0,7.7-5.1,12.8-12.8,12.8h-51c-7.6,0-12.8-5.1-12.8-12.8v-51
			c0-7.7,5.1-12.8,12.8-12.8h51c7.6,0,12.8,5.1,12.8,12.8V114.8z"/>
	</g>
</g>
</svg>
